<svg preserveAspectRatio="none" overflow="visible" style="display: block;" width="18" height="18" viewBox="0 0 18 18" fill="none" xmlns="http://www.w3.org/2000/svg">
<g id="rabbit">
<path id="Vector" d="M9.75006 11.9996C10.1847 11.999 10.6102 12.1244 10.9751 12.3604C11.3401 12.5964 11.6288 12.9331 11.8065 13.3297C11.9842 13.7264 12.0433 14.166 11.9765 14.5954C11.9097 15.0248 11.7199 15.4258 11.4302 15.7497M13.5004 8.99955H13.5079M13.5004 15.75H7.49988C6.70417 15.75 5.94104 15.4339 5.37839 14.8713C4.81574 14.3087 4.49964 13.5456 4.49964 12.7499C4.49964 11.3575 5.05281 10.0221 6.03745 9.03755C7.0221 8.05296 8.35756 7.49983 9.75006 7.49983H9.90007L7.19986 4.79977C7.06196 4.66188 6.95257 4.49818 6.87794 4.31802C6.80331 4.13786 6.7649 3.94476 6.7649 3.74975C6.7649 3.35592 6.92136 2.97821 7.19986 2.69973C7.47836 2.42125 7.85608 2.2648 8.24994 2.2648C8.44496 2.2648 8.63807 2.30321 8.81824 2.37783C8.99841 2.45246 9.16212 2.56184 9.30002 2.69973L11.8502 5.24978H12.0002M12.0002 5.24978C14.4754 5.24978 16.5006 7.27482 16.5006 9.74988V10.4999C16.5006 10.8977 16.3426 11.2793 16.0612 11.5606C15.7799 11.8419 15.3983 11.9999 15.0005 11.9999H14.2504C13.6536 11.9999 13.0813 12.237 12.6593 12.6589C12.2373 13.0809 12.0002 13.6532 12.0002 14.25M12.0002 5.24978V2.99943C12.0002 2.6016 12.1583 2.22006 12.4396 1.93875C12.7209 1.65744 13.1025 1.4994 13.5004 1.4994C13.8982 1.4994 14.2798 1.65744 14.5611 1.93875C14.8424 2.22006 15.0005 2.6016 15.0005 2.99943V6.4045M5.70866 9.39271C5.49775 9.01946 5.18458 8.71422 4.80603 8.51294C4.42748 8.31166 3.9993 8.22271 3.5719 8.25657C3.1445 8.29042 2.73566 8.44566 2.39352 8.70403C2.05138 8.96239 1.79018 9.31312 1.64066 9.71492C1.49115 10.1167 1.45954 10.5529 1.54956 10.972C1.63959 11.3912 1.84749 11.7759 2.14881 12.0809C2.45012 12.3859 2.8323 12.5984 3.25036 12.6936C3.66842 12.7887 4.10495 12.7624 4.50856 12.6178" stroke="#8E8E93" stroke-width="2" stroke-linecap="round"/>
</g>
</svg>
